<svg width="300" height="168" viewBox="0 0 300 168" fill="none" xmlns="http://www.w3.org/2000/svg">
<g clip-path="url(#clip0_217_2)">
<path fill-rule="evenodd" clip-rule="evenodd" d="M0 0H300V168H0V0Z" fill="white"/>
<path fill-rule="evenodd" clip-rule="evenodd" d="M48.3765 108.373L39.3722 108.458C39.6296 106.05 40.7445 103.814 42.9742 102.696C45.2039 101.578 49.6634 100.889 54.1228 100.889C58.1542 100.889 60.8974 101.147 62.8698 101.834C64.8421 102.522 66.5571 103.383 67.3292 104.414C68.1013 105.447 68.8735 107.081 68.9588 109.833V117.403C69.0442 119.468 68.6161 123.424 69.9017 125.229H61.2402C60.8108 124.452 60.9828 123.422 60.5547 122.563C58.9251 123.681 57.3808 124.625 55.5805 125.142C53.7885 125.769 51.904 126.089 50.0061 126.088C46.4042 126.088 43.0596 125.314 41.0018 124.023C38.9429 122.647 38 120.669 38 118.604C38 117.228 38.6855 115.852 39.5442 114.819C40.4871 113.701 41.9459 112.583 43.5755 112.067C45.2051 111.465 47.5203 111.035 50.7795 110.691C54.9816 110.175 58.4115 110.605 60.0411 110.089L59.9558 108.798C59.9558 107.595 59.3556 106.39 58.4981 105.874C57.6406 105.357 56.0964 104.841 53.6947 104.841C52.0651 104.841 50.6075 105.272 49.6646 105.787C48.8047 106.222 48.3765 107.168 48.3765 108.373V108.373ZM60.0399 114.221C56.438 114.479 52.6652 113.619 48.8059 115.512C47.691 116.028 47.0909 117.318 47.0909 118.264C47.0909 119.124 47.7764 120.242 48.7193 120.844C49.6622 121.531 51.1198 121.704 52.5786 121.704C54.2807 121.703 55.9574 121.29 57.4662 120.5C58.5811 119.984 59.3532 118.866 59.696 118.092C60.1253 116.973 60.0399 115.425 60.0399 114.221V114.221ZM72.7316 125.145V91L81.5651 91.0856V125.145H72.7316ZM119.041 101.492H127.445V104.932C128.475 103.728 129.932 102.781 131.819 102.094C133.706 101.319 135.764 100.976 137.994 100.976C141.937 100.976 145.283 102.008 148.028 104.159C150.772 106.309 152.144 109.32 152.144 113.103C152.144 117.059 150.687 120.156 147.942 122.306C145.198 124.539 141.853 125.574 137.908 125.574C136.021 125.574 134.307 125.316 132.849 124.797C131.305 124.284 129.675 123.424 128.045 122.133V134H119.041V101.492V101.492ZM127.959 112.845C127.959 115.512 128.644 117.49 130.189 118.78C131.733 119.984 133.533 120.673 135.678 120.673C137.821 120.673 139.537 120.071 140.908 118.866C142.28 117.748 142.967 115.855 142.967 113.189C142.967 110.694 142.281 108.888 140.823 107.684C139.45 106.48 137.65 105.877 135.592 105.877C133.362 105.877 131.561 106.479 130.103 107.684C128.646 108.802 127.959 110.609 127.959 112.845V112.845ZM198.967 117.059H207.973C208.316 118.263 208.83 119.037 210.032 119.639C211.147 120.241 212.776 120.585 214.835 120.585C217.063 120.585 218.178 120.585 219.292 119.983C220.493 119.381 221.179 117.488 219.978 116.628C219.549 116.285 219.035 116.285 217.576 116.027C210.46 114.909 205.914 113.962 204.028 113.016C201.369 111.726 199.912 109.833 199.912 107.512C199.912 105.534 200.941 103.814 203.256 102.351C205.486 100.974 209.345 100.2 214.062 100.2C218.606 100.2 222.208 100.631 224.437 101.662C226.667 102.693 227.867 105.274 228.039 107.425L219.463 107.339C219.12 106.393 219.463 106.135 218.52 105.705C217.491 105.189 216.119 104.93 214.234 104.93C211.919 104.93 210.289 105.103 209.26 105.618C208.317 106.134 208.23 107.51 209.174 108.027C209.947 108.457 212.691 109.059 217.405 109.746C222.037 110.521 225.296 111.466 227.183 112.584C229.07 113.702 229.928 115.251 229.928 117.229C229.928 119.38 228.641 121.185 226.154 122.734C223.581 124.282 219.807 125.314 214.835 125.314C210.289 125.314 206.087 124.881 203.428 123.594C200.768 122.306 199.225 120.413 198.967 117.059V117.059ZM253.509 100.631V105.017H245.19V115.081C245.19 116.715 245.276 119.124 246.735 119.898C248.192 120.586 252.653 120.329 253.768 120.071V124.285C251.709 124.884 247.593 124.884 245.02 124.884C243.392 124.884 241.935 124.626 240.648 124.285C239.64 123.957 238.707 123.43 237.904 122.736C237.303 122.134 236.874 121.274 236.703 120.242C236.531 119.555 236.361 118.092 236.361 115.855V105.19H229.414L229.329 100.631H236.362V96.9352L245.193 93.6667V100.631H253.509ZM153.774 125.145V91L162.605 91.0856V125.145H153.774ZM175.727 108.373L166.722 108.458C167.065 106.05 168.094 103.814 170.324 102.696C172.639 101.578 177.013 100.889 181.474 100.889C185.505 100.889 188.247 101.147 190.219 101.834C192.192 102.522 193.907 103.383 194.679 104.414C195.451 105.445 196.223 107.081 196.308 109.833L196.394 117.403C196.394 119.468 195.964 123.424 197.251 125.229H188.588C188.159 124.452 188.331 123.422 187.903 122.563C186.359 123.681 184.729 124.625 182.931 125.142C181.139 125.769 179.255 126.089 177.357 126.088C173.84 126.088 170.41 125.314 168.351 124.023C166.379 122.647 165.35 120.669 165.35 118.604C165.35 117.228 166.035 115.852 166.979 114.819C167.837 113.701 169.294 112.583 170.924 112.067C172.639 111.465 174.869 111.035 178.128 110.691C182.416 110.175 185.759 110.605 187.388 110.089L187.303 108.798C187.303 107.595 186.703 106.39 185.845 105.874C184.988 105.357 183.446 104.841 181.044 104.841C179.415 104.841 177.957 105.272 177.1 105.787C176.157 106.222 175.727 107.168 175.727 108.373V108.373ZM187.475 114.221C183.79 114.479 180.016 113.619 176.242 115.512C175.042 116.028 174.527 117.318 174.527 118.264C174.527 119.124 175.127 120.242 176.071 120.844C177.014 121.531 178.558 121.704 180.016 121.704C181.689 121.693 183.335 121.28 184.817 120.5C185.932 119.984 186.704 118.866 187.047 118.092C187.475 116.973 187.475 115.425 187.475 114.221V114.221ZM257.969 99.427C257.369 99.427 256.854 99.2545 256.424 99.0833C255.904 98.9126 255.433 98.6175 255.052 98.2233C254.709 97.8796 254.452 97.449 254.195 96.9352C254.023 96.5047 253.852 95.9872 253.852 95.3842C253.852 94.6123 254.109 93.9248 254.452 93.3217C254.795 92.7187 255.31 92.2881 255.91 91.9444C256.51 91.6006 257.197 91.4294 257.969 91.4294C258.483 91.4294 258.998 91.515 259.513 91.6875C259.942 91.8587 260.37 92.2025 260.8 92.5474C261.143 92.8912 261.485 93.323 261.657 93.8392C261.829 94.2698 262 94.7848 262 95.3854C262 95.9872 261.828 96.5059 261.657 96.9365C261.485 97.4502 261.143 97.8796 260.8 98.2246C260.435 98.5979 259.997 98.8908 259.513 99.0845C258.998 99.2546 258.483 99.427 257.969 99.427V99.427ZM254.709 95.3842C254.709 95.986 254.795 96.5903 255.139 97.1041C255.396 97.6203 255.824 97.964 256.339 98.3077C256.768 98.5659 257.369 98.7383 257.969 98.7383C258.569 98.7383 259.084 98.5659 259.598 98.3077C260.113 97.964 260.456 97.6203 260.713 97.1041C261.056 96.5903 261.143 95.986 261.143 95.3842C261.143 94.956 261.057 94.441 260.971 94.0961C260.799 93.6655 260.541 93.3217 260.198 92.9768C259.905 92.6799 259.555 92.446 259.169 92.2893C258.794 92.1131 258.383 92.0248 257.969 92.0312C257.454 92.0312 257.111 92.1168 256.682 92.2893C256.252 92.4618 255.91 92.7199 255.652 92.9768C255.31 93.3217 255.138 93.6655 254.967 94.0961C254.796 94.5267 254.709 94.9572 254.709 95.3842ZM257.111 95.7291V97.7071H256.426V93.0649H258.141C258.741 93.0649 259.084 93.2373 259.341 93.4086C259.684 93.5811 259.77 93.9248 259.77 94.441C259.77 95.1273 259.341 95.5566 258.57 95.6423L259.857 97.7071H259.085L257.885 95.7291H257.111V95.7291ZM257.111 95.1261H257.969C258.141 95.1261 258.398 95.1261 258.483 95.0429C258.655 95.0429 258.826 94.9572 258.913 94.8704C258.999 94.7835 259.085 94.6123 259.085 94.3542C259.085 93.9236 258.742 93.6667 258.055 93.6667H257.112V95.1261H257.111Z" fill="#CE3729"/>
<path fill-rule="evenodd" clip-rule="evenodd" d="M110.964 105C103.934 93.7502 101.85 79.6867 106.452 66.2208C114.698 42.2712 141.347 29.3157 165.826 37.4125C176.764 41.0772 185.53 48.3229 191 57.4416C185.53 48.7484 176.938 41.6736 166.261 38.1798C141.868 30.0831 115.219 43.0374 106.971 66.9882C102.457 80.1134 104.367 93.9211 110.964 105Z" fill="black"/>
<path fill-rule="evenodd" clip-rule="evenodd" d="M87 94.8601C105.478 87.8123 125.147 82.972 145.753 80.9347C168.403 78.5569 190.625 79.7464 212 83.8222C191.915 80.4418 171.464 79.7849 151.203 81.8694C128.553 84.1616 107.011 89.7663 87 98V94.8601V94.8601ZM114.589 44C114.589 44 132.385 53.5936 150.862 57.7551C169.254 62.0012 191.392 63.1038 191.392 63.1038C191.392 63.1038 170.617 62.4251 150.777 58.3493C130.851 54.358 114.163 45.3586 114.163 45.3586L114.589 44V44ZM122.167 82.8017C122.167 82.8017 121.996 65.7365 122.082 64.972C122.167 64.123 125.829 55.2082 136.132 56.6513C146.435 58.0945 148.819 64.7184 148.989 67.0951C149.16 69.3872 148.989 79.3213 148.989 79.3213H148.308C148.308 79.3213 148.308 75.9254 147.968 74.5668C147.542 73.2927 147.542 77.1137 147.542 77.1137L147.286 67.3499H148.308C148.308 67.3499 147.882 61.4916 140.56 58.0111C133.237 54.5295 128.043 58.6053 128.043 58.6053L128.81 59.0304C128.81 59.0304 133.748 56.4835 140.049 58.7756C146.435 61.1534 147.031 66.077 147.031 66.077C147.031 66.077 146.264 61.5773 139.878 59.3697C133.576 57.1622 126.51 58.8601 124.381 65.3983C124.296 72.5307 124.296 80.9359 124.296 80.9359L123.36 78.1342L123.019 78.8974L122.509 77.9639L122.167 82.8017V82.8017Z" fill="black"/>
<path fill-rule="evenodd" clip-rule="evenodd" d="M125.408 65.317L129.797 61.4516L129.882 61.3648L130.055 61.5371H129.969L125.493 65.4893V65.5749L125.321 65.4038L125.408 65.317V65.317ZM127.473 64.6302L131.862 60.678L131.949 60.5924L132.035 60.7635L131.949 60.8503L127.559 64.7157V64.8013L127.386 64.7157L127.473 64.6302V64.6302ZM127.473 66.1761L131.862 62.2251L131.949 62.1384L132.035 62.3107L131.949 62.3962L127.559 66.2629V66.3484L127.386 66.2629L127.473 66.1761V66.1761ZM110.086 82.9308L115.508 78.205V78.1195L115.681 78.205L115.594 78.2918L110.171 83.1031V83.1887L110 83.0176L110.086 82.9308V82.9308ZM110.602 80.6113L116.025 75.8L116.11 75.7144L116.283 75.8855H116.197L110.774 80.6969L110.688 80.7836L110.515 80.6113H110.602ZM139.695 78.2918L145.031 73.4805L145.118 73.3937L145.29 73.566L145.204 73.6516L139.782 78.3773L139.695 78.4629L139.609 78.3773L139.695 78.2918V78.2918ZM138.748 80.7836L144.171 75.9723L144.258 75.8855L144.343 76.0578H144.258L138.921 80.8692L138.834 80.9547L138.663 80.7836H138.748ZM167.497 68.5824L172.835 63.7711L172.92 63.6855L173.093 63.8578H173.006L167.584 68.6679L167.497 68.7535L167.411 68.5824H167.497ZM166.12 68.4956L171.457 63.6855L171.543 63.6L171.716 63.7711H171.629L166.207 68.5824L166.12 68.6679L166.034 68.4956H166.12ZM156.565 78.205L160.783 74.4252L160.869 74.3396L160.956 74.5107L156.651 78.2918V78.3773L156.478 78.205H156.565V78.205ZM156.393 79.4088L160.008 76.2302V76.1434L160.181 76.3157L160.095 76.4013L156.478 79.5811V79.6666L156.307 79.4943L156.393 79.4088V79.4088ZM135.908 60.1623V81.0415H135.65L135.737 80.9547V60.1623L135.65 60.0767H135.908V60.1623ZM151.057 52.0855V56.4679L151.144 56.5535H150.886V52H151.144L151.057 52.0855ZM148.734 53.2025V56.1245L148.819 56.2101H148.561V53.117H148.734V53.2025ZM163.538 58.3585V62.3107H163.279L163.365 62.2251V58.3585L163.279 58.2717H163.538V58.3585ZM164.14 63.6V69.1837H163.969V63.6L163.882 63.5132H164.14V63.6ZM164.14 70.4729V80.3535H163.969V70.4729L163.882 70.3862H164.14V70.4729V70.4729ZM136.769 61.7094L136.855 64.8013V64.888H136.683V64.8013L136.596 61.7094V61.6226H136.855L136.769 61.7094ZM136.769 65.6616V86.883H136.596V65.5749H136.769V65.6616ZM163.194 83.9622L163.452 63.6H162.677V79.0654L163.365 78.9798L163.194 83.9622ZM151.057 80.6113H149.938L149.767 61.5371H150.455L150.972 62.0528L151.057 80.6113V80.6113ZM175.245 64.7157H176.106V79.5811H175.331L175.245 64.7157V64.7157ZM177.225 64.0289L177.913 63.9434L178 80.0101H177.138L177.225 64.0289V64.0289ZM175.848 83.4465L175.761 88H175.589L175.675 83.4465H175.848Z" fill="black"/>
<path fill-rule="evenodd" clip-rule="evenodd" d="M177 79V83.8246H176.828V79H177ZM150.374 79.1847V88H150.203V79.0924H150.374V79.1847ZM135.172 85.2155V86.8862L135.258 86.9786H135V85.1232H135.172V85.2155V85.2155Z" fill="black"/>
<path fill-rule="evenodd" clip-rule="evenodd" d="M87 91.8314C87.5108 91.664 87.9357 91.4978 88.4466 91.4135L89.2129 91.163L90.0639 90.9124L91.1703 90.5788L92.2779 90.2452L93.6398 89.8273L95.0864 89.4094L96.6177 88.9914L98.3197 88.5735L100.022 88.0725L101.894 87.5714L103.852 87.0704L105.895 86.5694L108.022 86.0683L110.235 85.5673L112.448 85.0663L114.745 84.5652L117.129 84.0654L119.511 83.5644L121.98 83.0633L124.448 82.6454L127.001 82.2287L129.469 81.8107L132.022 81.3928L134.575 81.0592L137.128 80.7256L139.596 80.4751L142.149 80.2245L144.618 80.0571L147.086 79.8897L149.554 79.8066L152.022 79.6392L154.406 79.5561L156.787 79.473L159.085 79.3899L161.382 79.3068L163.595 79.2237H168.021L170.149 79.1406H176.023L177.895 79.2237H181.385L183.002 79.3068H185.979L187.341 79.3899H188.532L189.723 79.473L191.681 79.5561L193.213 79.6392C193.724 79.6392 194.32 79.6392 194.831 79.7223H195V79.8897H194.829C194.318 79.8066 193.723 79.8066 193.212 79.8066L191.68 79.7235L189.722 79.6404L188.531 79.5573H187.254L185.977 79.4742H183L181.383 79.3911H177.893L176.02 79.308H170.147L168.018 79.3911H163.678L161.38 79.4742L159.082 79.5573L156.785 79.6404L154.404 79.7235L152.02 79.8066L149.552 79.974L147.084 80.0571L144.615 80.2245L142.147 80.3919L139.679 80.6425L137.126 80.893L134.573 81.2266L132.02 81.5602L129.551 81.9782L126.998 82.3961L124.53 82.8128L122.062 83.2307L119.594 83.7318L117.21 84.2328L114.826 84.7327L112.529 85.2337L110.234 85.7371L108.106 86.2381L105.979 86.7392L103.935 87.2402L101.978 87.7412L100.105 88.2423L98.3173 88.7433L96.7 89.1612L95.0839 89.5791L93.6373 89.9971L92.3614 90.415L91.1691 90.7486L90.1486 90.9991L89.2129 91.3328C88.5325 91.5002 87.851 91.7507 87.1695 91.9169L87.0847 92H87V91.8314V91.8314ZM177.981 71.2962L183.344 71.7972H183.429V71.9646H183.344L177.981 71.4636H177.896V71.2962H177.981V71.2962ZM184.277 71.8803L184.788 71.9646H184.874V72.2151L184.788 72.1308L184.192 72.0477H184.11V71.7972L184.277 71.8803ZM178.663 64.1179C178.152 64.1179 177.556 64.0348 177.045 64.0348L176.024 63.9517L174.917 63.7842L173.64 63.7011L172.194 63.5349L170.576 63.3675L168.788 63.117L166.916 62.9496L164.872 62.6991L162.829 62.3654L160.616 62.1149L158.318 61.7813L156.021 61.3634L153.553 61.0298L151.086 60.6118L148.617 60.1108L146.065 59.6098L143.512 59.1087L140.959 58.5246L138.406 57.9404L135.938 57.3563L133.385 56.6891L130.917 56.0218L128.533 55.2703L126.151 54.5187L123.853 53.684L121.641 52.8494L119.512 51.9316L117.555 51.0138L112.703 48.6773C110.406 47.509 108.108 46.4238 105.81 45.2543C104.704 44.7533 103.598 44.1692 102.491 43.6681L101.896 43.3345L101.129 43.0009L100.618 42.7504L100.534 42.6673H100.363L100.534 42.4998L101.725 43.084C102.236 43.3345 102.747 43.585 103.171 43.8355C104.704 44.5028 106.149 45.2543 107.597 45.9228C109.301 46.8352 111.032 47.6983 112.788 48.5111C114.405 49.2614 116.022 50.0973 117.555 50.8476L119.598 51.7654L121.725 52.6832L123.938 53.519L126.236 54.3537L128.533 55.1052L131.002 55.8568L133.47 56.524L135.938 57.1913L138.491 57.7754L141.043 58.4427L143.596 58.9437L146.149 59.4447L148.617 59.9458L151.17 60.4468L153.637 60.8647L156.021 61.1983L158.318 61.6163L160.616 61.9499L162.829 62.2004L164.957 62.534L166.914 62.7846L168.787 62.952L170.575 63.2025L172.192 63.3699L173.639 63.5373L174.916 63.6204L176.107 63.7866L177.043 63.8697C177.639 63.8697 178.234 63.9528 178.831 63.9528H178.916V64.2034L178.745 64.1203H178.663V64.1179V64.1179ZM99.3402 67.9575L119.596 68.2912H119.682V68.4586H119.596L99.3402 68.1238H99.2554V67.9575H99.3402V67.9575ZM98.149 70.211L99.6803 70.1279C102.149 70.0448 104.532 70.0448 107 69.9605L110.404 69.8774L112.276 69.7943H114.149L116.192 69.7112H120.362L122.489 69.6281H126.83L129.043 69.5449H137.81L139.853 69.6281H143.939L145.811 69.7112H147.684L149.472 69.7943L151.089 69.8774C153.981 70.0448 156.79 70.1279 159.684 70.2953C161.641 70.3784 163.514 70.5458 165.472 70.6289L169.131 70.7963L174.578 71.0469L175.77 71.13H176.194V71.3805L176.11 71.2974H174.917L174.151 71.2143L168.278 70.8806L164.363 70.7132L157.043 70.3796L151.087 70.046L149.385 69.9629L147.683 69.8798H145.81L143.937 69.7966H139.852L137.808 69.7135H129.042L126.829 69.7966H122.488L120.361 69.8798H116.191L114.147 69.9629H112.275L108.615 70.046L105.467 70.1291L102.743 70.2122L98.5727 70.3796H98.063V70.2122H98.149V70.211V70.211ZM108.276 59.4435C108.361 59.3604 108.361 59.193 108.447 59.0256L108.618 58.7751L108.788 58.3572L108.959 57.9393L109.214 57.4382L109.555 56.8541L109.98 56.1868L110.49 55.4353L111.001 54.6837L111.597 53.9334L112.362 53.0156L113.128 52.1809L113.979 51.1789L114.915 50.2611L115 50.178L115.17 50.3454H115.086L114.15 51.3463L113.214 52.2641L112.448 53.1818L111.767 54.0165L111.172 54.7668L110.576 55.5184L110.15 56.2699L109.724 56.9372L109.384 57.5213L109.129 58.0224L108.873 58.4403L108.702 58.8582L108.618 59.1087L108.533 59.3593L108.448 59.5267V59.6098H108.278V59.4435H108.276V59.4435ZM119.682 45.7542L119.767 45.6711C120.022 45.4206 120.362 45.2532 120.618 45.0038L121.298 44.5028L121.638 44.1692L122.064 43.9186L122.49 43.585L123.001 43.2514L123.426 42.9178L123.937 42.6673L124.363 42.3336L124.874 42H124.959L125.043 42.0831L124.959 42.1662L124.533 42.4998L124.022 42.7504L123.511 43.084L123.086 43.4176L122.575 43.7512L122.149 44.0018L121.809 44.3354L121.383 44.5847L121.043 44.9183L120.447 45.3363C120.192 45.5037 120.021 45.6699 119.767 45.9204L119.596 46.0035V45.753H119.682V45.7542V45.7542Z" fill="black"/>
<path fill-rule="evenodd" clip-rule="evenodd" d="M124.963 45.8068L124.045 46.4956L123.126 47.1843L122.207 47.9601L121.289 48.8217C119.702 50.3733 118.281 51.9236 116.693 53.648C114.857 55.9697 113.261 58.4822 111.93 61.1448C109.591 66.0557 107.669 71.5707 107.168 77H107C107.417 71.6577 109.506 65.8841 111.762 61.059C113.182 58.3015 114.687 55.8896 116.525 53.5622C118.113 51.8391 119.533 50.2017 121.204 48.6501L122.123 47.8756L123.042 47.0998L123.96 46.324L124.879 45.6352C128.973 42.8777 134.154 39.69 139 39V39.1728C134.154 39.9486 129.056 43.0493 124.963 45.8068V45.8068Z" fill="black"/>
<path fill-rule="evenodd" clip-rule="evenodd" d="M107.048 125.483V121.971C105.804 123.257 104.23 124.2 102.24 124.969C100.334 125.656 98.1786 126 96.0234 126C93.7857 126 91.7968 125.657 90.0554 124.969C88.2328 124.285 86.9889 123.343 86.1601 122.057C85.4138 120.771 85 119.057 85 116.829V102.001H93.7869V112.8C93.7869 116.057 93.9531 118.113 94.2844 118.885C94.6157 119.57 95.1958 120.171 96.0246 120.599C96.8546 121.113 97.931 121.284 99.2574 121.284C100.832 121.284 102.159 121.027 103.319 120.427C104.479 119.827 105.308 119.141 105.723 118.284C106.22 117.342 106.387 115.284 106.387 111.942V102H115.255C115.255 108.514 115.337 115.028 115.337 121.541C115.42 122.912 115.586 124.198 116 125.481H107.048V125.483V125.483Z" fill="#CE3729"/>
</g>
<defs>
<clipPath id="clip0_217_2">
<rect width="300" height="168" fill="white"/>
</clipPath>
</defs>
</svg>
