<svg width="300" height="168" viewBox="0 0 300 168" fill="none" xmlns="http://www.w3.org/2000/svg">
<rect width="300" height="168" fill="white"/>
<path d="M255.765 70.5561V74.9467H255.12V70.5561H253.715V70H257.141V70.5561H255.765Z" fill="#1D1D1B"/>
<path d="M261.385 74.9467V71.4343L261.004 72.3709L260.155 74.215H259.599L258.72 72.3124L258.34 71.4343V74.9467H257.695V70H258.31L259.364 72.3124L259.862 73.4539L260.36 72.3124L261.385 70H262V74.9467H261.385Z" fill="#1D1D1B"/>
<path d="M96.6803 74.4491L104.938 83.9327L90.502 93.3286L96.6803 74.4491Z" fill="#E20613"/>
<path d="M55.393 70.9368L53.9289 71.1124C52.2761 71.1213 50.6519 71.5438 49.2044 72.3414C47.7569 73.139 46.5323 74.2863 45.6424 75.6786C45.4455 76.0953 45.2791 76.5257 45.1446 76.9665L38 98.6852H42.8021C45.0985 98.4476 47.2704 97.525 49.0354 96.0373C50.8004 94.5496 52.0769 92.5656 52.6991 90.3431L53.7532 87.2404H76.0362L72.3175 98.6267H84.3227L93.3706 70.9368H55.393V70.9368ZM77.998 81.2107H55.7444L57.0913 76.9665H79.3449L77.998 81.2107Z" fill="#1D1D1B"/>
<path d="M146.751 76.9663L142.124 91.0161C140.924 95.1433 143.061 98.8021 147.043 98.8021H180.395C182.573 98.4998 184.63 97.6176 186.351 96.2478C188.072 94.878 189.392 93.0711 190.174 91.0161L190.321 90.6356L194.069 78.9274C195.328 74.5368 193.103 70.9658 189.032 70.9658H155.886C153.948 70.9845 152.056 71.5601 150.436 72.6241C148.816 73.6881 147.537 75.1954 146.751 76.9663V76.9663ZM177.701 92.4796H153.485L158.58 76.9663H182.766L177.701 92.4796Z" fill="#1D1D1B"/>
<path d="M192.635 98.7142H197.408C199.712 98.4763 201.891 97.5505 203.661 96.0574C205.431 94.5643 206.711 92.5731 207.334 90.3429L211.755 76.9663H235.473L233.804 81.6788H216.235L227.948 98.7142H242.003L234.302 87.6207H236.879H239.309C240.33 87.544 241.325 87.2654 242.237 86.8012C243.634 86.0412 244.79 84.9056 245.575 83.5229C246.236 82.0573 246.774 80.5399 247.185 78.9859L247.449 78.1078C247.579 77.6881 247.667 77.2568 247.713 76.8199C247.826 76.0752 247.773 75.3145 247.557 74.5928C247.34 73.8712 246.967 73.2064 246.463 72.6464C245.959 72.0865 245.336 71.6453 244.641 71.3547C243.946 71.0641 243.195 70.9313 242.442 70.9658H201.683L192.635 98.7142Z" fill="#1D1D1B"/>
<path d="M123.179 98.7145H137.556L125.551 84.8403L146.897 70.9368H137.674C133.399 70.9368 132.344 71.1124 125.58 75.5322L120.398 78.9276L117.47 75.5615C113.956 71.4636 112.872 71.1124 109.359 70.9368H99.2275L111.291 84.8403L90.0039 98.7145H101.072C104 98.7145 105.611 97.8364 111.233 94.1775L116.415 90.7822L123.15 98.7145H123.179Z" fill="#1D1D1B"/>
</svg>
