<svg width="300" height="168" viewBox="0 0 300 168" fill="none" xmlns="http://www.w3.org/2000/svg">
<g clip-path="url(#clip0_216_8)">
<path fill-rule="evenodd" clip-rule="evenodd" d="M0 0H300V168H0V0Z" fill="white"/>
<path fill-rule="evenodd" clip-rule="evenodd" d="M131.816 119.119V118.016H133.059C133.059 118.016 134.746 118.194 134.746 116.297V105.851C134.746 105.851 134.813 104.263 133.304 104.263H131.728V103.097H144.421C144.421 103.097 150.945 102.743 150.945 107.04C150.945 111.359 145.552 111.184 145.552 111.184C145.552 111.184 148.015 111.757 148.969 114.006C149.923 116.253 149.946 117.774 150.811 117.774C151.677 117.774 152.252 116.584 152.252 115.569H153.362C153.362 115.569 153.762 119.449 149.456 119.449C145.13 119.449 144.707 117.2 144.707 116.054C144.707 114.909 144.686 111.428 141.578 111.428H139.227V115.769C139.227 115.769 139.027 117.972 140.847 117.972H142.378V119.119H131.816V119.119ZM211.39 119.119V118.06C211.39 118.06 214.495 118.369 214.495 115.263V105.83C214.495 105.83 213.986 104.42 211.61 104.42V103.098H218.268L229.384 113.719V106.711C229.384 106.711 229.339 104.397 226.366 104.397V103.098H233.778V104.441C233.778 104.441 230.871 104.42 230.871 106.754V119.119H229.03L216.093 106.711V115.284C216.093 115.284 215.96 118.081 219.155 118.081V119.119H211.39ZM166.943 119.119H155.006V117.95H156.491C156.491 117.95 157.888 118.081 157.888 116.187V106.028C157.888 106.028 157.956 104.331 156.513 104.331H154.983V103.097H166.078C166.078 103.097 176.085 102.766 176.085 110.941C176.085 119.119 166.943 119.119 166.943 119.119V119.119ZM176.529 119.119V118.104H177.572C177.572 118.104 179.436 118.413 179.436 116.254V105.939C179.436 105.939 179.613 104.42 178.149 104.42H176.529V103.098H186.959V104.42H185.339C183.873 104.42 184.052 105.939 184.052 105.939V116.254C184.052 118.413 185.914 118.104 185.914 118.104H186.959V119.119H176.529V119.119ZM188.467 119.119V117.972C188.467 117.972 190.375 118.369 192.216 115.063L198.584 103.097H200.871L207.306 115.547C207.306 115.547 208.149 118.015 210.346 118.015V119.118H200.871V117.971C200.871 117.971 203.823 118.521 202.757 116.45L201.668 114.159H194.368L193.902 115.063C193.902 115.063 192.304 118.016 196.234 118.016V119.119H188.467V119.119ZM108.206 119.119V117.972C108.206 117.972 110.091 118.369 111.933 115.063L118.302 103.097H120.61L127.023 115.547C127.023 115.547 127.866 118.015 130.063 118.015V119.118H120.61V117.971C120.61 117.971 123.539 118.521 122.495 116.45L121.408 114.159H114.085L113.641 115.063C113.641 115.063 112.043 118.016 115.971 118.016V119.119H108.206V119.119ZM90.0769 104.332H88.7232V103.098H99.1524V104.221H97.8438C97.8438 104.221 96.2465 103.936 96.2465 105.808V114.117C96.2465 114.117 96.047 117.82 101.04 117.82C106.01 117.82 106.365 114.27 106.365 113.17V106.402C106.365 106.402 106.321 104.264 103.281 104.264V103.076H110.937V104.133C110.937 104.133 107.853 104.133 107.853 106.754V113.719C107.853 113.719 108.163 119.362 100.286 119.362C92.4093 119.362 91.5654 116.297 91.5654 112.925V105.806C91.5633 105.807 91.919 104.332 90.0769 104.332V104.332ZM83.7974 104.177L85.55 102.789H86.4381L86.7928 109.18H85.55C85.55 109.18 83.7522 103.824 78.7154 103.824C73.7002 103.824 72.5911 108.124 72.5911 111.055C72.5911 113.964 73.1904 118.414 77.7841 118.414C77.7841 118.414 82.31 118.48 82.31 115.152V113.719C82.31 113.719 82.2658 112.882 81.1115 112.882H79.3137V111.801H89.3882V112.838C89.3882 112.838 86.837 112.573 86.837 114.16V119.407H85.6826L83.9516 117.135C83.9516 117.135 81.5545 119.363 77.6721 119.363C73.7897 119.363 67.0209 117.685 67.0209 111.405C67.0209 105.102 73.9439 102.745 78.4708 102.745C78.4718 102.744 82.31 102.899 83.7974 104.177V104.177ZM221.619 146.756L221.796 146.8C222.195 146.69 222.638 146.602 223.106 146.58C223.55 144.068 224.237 142.216 225.036 141.114C226.168 139.527 227.543 138.711 228.031 138.711C228.387 138.711 228.475 138.799 228.475 139.196C228.475 139.527 228.342 140.365 228.031 141.664L227.631 143.162C227.231 144.683 226.944 145.652 226.944 146.161C226.944 146.602 227.187 146.887 227.477 146.887C228.141 146.887 229.208 146.315 230.626 145.147L230.45 144.706C229.672 145.323 229.163 145.674 228.763 145.674C228.63 145.674 228.54 145.521 228.54 145.233C228.54 144.97 228.674 144.154 229.03 142.811L229.407 141.377C229.873 139.57 230.094 138.468 230.094 138.072C230.094 137.653 229.873 137.434 229.43 137.434C228.253 137.434 226.055 138.8 224.103 141.731C224.569 139.791 224.79 138.513 224.79 137.94C224.79 137.609 224.613 137.411 224.302 137.411C223.902 137.411 222.794 137.94 221.262 139.152L221.372 139.549C222.149 138.953 222.75 138.689 222.992 138.689C223.193 138.689 223.259 138.799 223.259 139.108C223.261 139.812 222.84 142.415 221.619 146.756V146.756ZM212.875 143.825C212.875 145.918 213.807 146.999 215.493 146.999C218.224 146.999 220.464 144.442 220.464 140.518C220.464 138.359 219.643 137.39 217.781 137.39C215.072 137.39 212.875 139.99 212.875 143.825V143.825ZM207.995 139.174L208.193 139.572C208.904 139.019 209.414 138.778 209.634 138.778C209.835 138.778 209.902 138.866 209.902 139.131C209.902 139.616 209.436 141.422 208.615 144.619C208.438 145.303 208.347 145.788 208.347 146.094C208.347 146.668 208.57 146.977 208.969 146.977C209.413 146.977 210.477 146.403 211.987 145.147L211.745 144.793C211.034 145.28 210.59 145.587 210.257 145.587C210.034 145.587 209.946 145.455 209.946 145.102C209.946 144.529 210.213 143.627 210.546 142.348L210.9 141.024C211.277 139.527 211.588 138.512 211.588 137.962C211.588 137.652 211.412 137.411 211.1 137.411C210.636 137.411 209.613 138.005 207.995 139.174V139.174ZM210.591 134.084C210.591 134.591 210.924 134.921 211.413 134.921C212.034 134.921 212.477 134.39 212.477 133.622C212.477 133.179 212.167 132.85 211.678 132.85C211.057 132.85 210.591 133.422 210.591 134.084V134.084ZM200.029 146.469C200.649 146.822 201.271 147 201.958 147C204.399 147 206.308 145.368 206.308 143.472C206.308 141.885 205.264 141.776 203.666 141.378C202.489 141.069 201.958 140.74 201.958 139.813C201.958 138.845 202.712 138.138 203.889 138.138C205.044 138.138 205.642 138.601 205.665 139.462V140.1H206.13C206.152 139.351 206.219 138.601 206.419 137.853C205.953 137.544 205.331 137.412 204.554 137.412C202.648 137.412 200.894 138.844 200.894 140.584C200.894 141.643 201.558 142.349 202.779 142.59C204.222 142.877 205.044 143.009 205.044 144.222C205.044 145.391 204.132 146.272 202.868 146.272C202.503 146.268 202.142 146.192 201.807 146.048C201.472 145.904 201.17 145.696 200.917 145.435V143.913H200.473C200.381 144.774 200.233 145.628 200.029 146.469V146.469ZM195.457 139.174L195.656 139.572C196.366 139.019 196.877 138.778 197.099 138.778C197.297 138.778 197.364 138.866 197.364 139.131C197.364 139.616 196.899 141.422 196.077 144.619C195.9 145.303 195.812 145.788 195.812 146.094C195.812 146.668 196.033 146.977 196.433 146.977C196.877 146.977 197.943 146.403 199.451 145.147L199.208 144.793C198.498 145.28 198.054 145.587 197.721 145.587C197.5 145.587 197.409 145.455 197.409 145.102C197.409 144.529 197.677 143.627 198.01 142.348L198.365 141.024C198.743 139.527 199.052 138.512 199.052 137.962C199.052 137.652 198.854 137.411 198.564 137.411C198.097 137.411 197.077 138.005 195.457 139.174V139.174ZM198.053 134.084C198.053 134.591 198.386 134.921 198.874 134.921C199.495 134.921 199.938 134.39 199.938 133.622C199.938 133.179 199.629 132.85 199.141 132.85C198.519 132.85 198.053 133.422 198.053 134.084ZM186.358 146.843H187.38C187.711 146.184 188.177 145.368 188.755 144.419L193.636 136.331C194.702 134.568 195.058 133.643 196.099 133.643H196.143L196.167 133.135C195.478 133.179 194.789 133.202 194.079 133.202C193.371 133.202 192.659 133.179 191.927 133.135V133.643C193.037 133.687 193.591 133.84 193.591 134.149C193.591 134.459 193.147 135.405 192.238 136.949L187.623 144.815L186.468 136.133C186.358 135.34 186.314 134.809 186.314 134.568C186.314 133.752 186.468 133.731 187.89 133.643L187.912 133.135C187.157 133.156 186.38 133.179 185.58 133.179C184.803 133.179 183.982 133.157 183.117 133.135L183.096 133.643C183.718 133.731 184.14 133.796 184.383 133.95C184.694 134.106 184.76 134.722 184.895 135.781L186.358 146.843V146.843ZM173.377 139.043C172.467 147.042 172.29 150.811 170.847 150.811C170.447 150.811 170.07 150.589 169.739 150.105L169.494 150.149L168.962 151.561L169.028 151.714C169.295 151.779 169.604 151.823 169.959 151.823C172.577 151.823 173.354 148.407 174.464 140.87L174.753 139.042H176.815L177.104 138.004C176.377 138.115 175.643 138.166 174.907 138.158L175.15 136.373C175.395 134.632 175.728 133.707 176.814 133.707C177.236 133.707 177.569 133.948 177.77 134.345L177.969 134.435C178.101 133.839 178.257 133.266 178.478 132.737C178.259 132.579 177.996 132.495 177.726 132.496C177.037 132.496 175.706 133.311 174.574 134.699C173.954 135.448 173.731 136.573 173.51 138.136C172.756 138.467 172.224 138.688 171.912 138.798V139.128C172.287 139.068 172.665 139.039 173.045 139.041H173.377V139.043V139.043ZM162.971 143.825C162.971 145.918 163.903 146.999 165.611 146.999C168.317 146.999 170.559 144.442 170.559 140.518C170.559 138.359 169.738 137.39 167.895 137.39C165.168 137.39 162.971 139.99 162.971 143.825ZM148.858 139.174L149.146 139.549C149.767 139.018 150.167 138.712 150.5 138.712C150.788 138.712 150.988 139.043 150.988 139.637C150.988 142.04 150.611 143.955 150.611 145.233C150.611 146.292 150.811 146.755 151.476 146.755C152.121 146.755 153.452 145.608 155.072 143.295C153.763 148.673 152.785 151.207 151.055 151.207C150.189 151.207 149.746 150.633 149.724 149.488L149.591 149.42L148.614 150.126V150.325C148.614 151.381 149.258 152 150.322 152C152.231 152 153.983 150.303 155.293 146.754C156.426 143.691 157.092 140.45 158.2 137.519L157.979 137.388L156.67 137.695C155.604 143.007 153.075 145.344 152.386 145.344C152.143 145.344 152.009 145.013 152.009 144.394C152.009 142.522 152.386 140.472 152.386 138.444C152.386 137.739 152.232 137.409 151.788 137.409C151.143 137.411 150.233 138.049 148.858 139.174V139.174ZM138.984 146.756L139.161 146.8C139.588 146.681 140.027 146.607 140.47 146.58C140.914 144.068 141.602 142.216 142.401 141.114C143.532 139.527 144.908 138.711 145.419 138.711C145.773 138.711 145.84 138.799 145.84 139.196C145.84 139.527 145.729 140.365 145.396 141.664L144.996 143.162C144.619 144.683 144.309 145.652 144.309 146.161C144.309 146.602 144.552 146.887 144.841 146.887C145.506 146.887 146.595 146.315 147.992 145.147L147.814 144.706C147.059 145.323 146.549 145.674 146.128 145.674C145.994 145.674 145.927 145.521 145.927 145.233C145.927 144.97 146.06 144.154 146.416 142.811L146.77 141.377C147.237 139.57 147.458 138.468 147.458 138.072C147.458 137.653 147.236 137.434 146.793 137.434C145.616 137.434 143.42 138.8 141.467 141.731C141.933 139.791 142.178 138.513 142.178 137.94C142.178 137.609 142 137.411 141.689 137.411C141.267 137.411 140.158 137.94 138.627 139.152L138.76 139.549C139.536 138.953 140.114 138.689 140.38 138.689C140.558 138.689 140.624 138.799 140.624 139.108C140.626 139.812 140.226 142.415 138.984 146.756V146.756ZM134.591 142.899C134.169 144.706 133.97 145.83 133.97 146.271C133.97 146.733 134.192 146.976 134.525 146.976C135.013 146.976 135.944 146.402 137.299 145.255L137.121 144.792C136.478 145.41 135.99 145.673 135.79 145.673C135.591 145.673 135.501 145.564 135.501 145.322C135.501 144.529 135.99 141.883 137.254 137.586L137.055 137.345L136.434 137.763C135.679 137.542 135.058 137.366 134.481 137.366C133.659 137.366 133.194 137.674 132.661 138.004C131.974 138.467 131.463 138.842 131.175 139.283C130.842 139.833 130.42 140.914 129.999 142.479C129.711 143.648 129.511 144.638 129.511 145.52C129.511 146.512 129.733 146.998 130.177 146.998C131.062 146.999 132.814 145.72 134.591 142.899V142.899ZM119.922 151.912L120.166 151.98C120.677 151.824 121.098 151.758 121.476 151.693C121.52 150.987 121.786 149.29 122.318 146.559C122.718 146.69 123.073 146.756 123.362 146.756C124.516 146.756 125.891 146.115 127.002 144.971C128.266 143.649 129.043 141.555 129.043 139.484C129.043 138.006 128.754 137.39 127.844 137.39C126.558 137.39 124.761 138.534 123.318 140.871C123.629 139.24 123.762 138.271 123.762 137.94C123.762 137.522 123.673 137.39 123.362 137.39C122.762 137.39 121.587 137.94 120.1 139.174L120.3 139.593C121.054 139.019 121.52 138.668 121.941 138.668C122.163 138.668 122.207 138.756 122.207 139.019C122.207 139.462 121.985 141.003 121.52 143.649L120.788 147.791C120.411 149.862 120.144 151.252 119.922 151.912ZM105.588 146.689L105.766 146.821C106.202 146.706 106.647 146.632 107.097 146.601C107.519 143.999 108.118 142.083 109.116 140.783C110.115 139.461 111.202 138.8 111.646 138.8C111.889 138.8 112.023 138.975 112.023 139.35C112.023 139.835 111.668 142.371 110.403 146.689L110.646 146.821C111.068 146.712 111.468 146.645 111.889 146.58C112.333 144.134 112.688 142.303 113.841 140.915C115.04 139.461 116.105 138.777 116.637 138.777C116.882 138.777 116.992 138.909 116.992 139.174C116.992 139.371 116.859 140.299 116.437 141.906L116.038 143.559C115.705 144.883 115.416 145.764 115.416 146.249C115.416 146.69 115.638 146.887 116.038 146.887C116.548 146.887 117.568 146.381 118.989 145.28L118.856 144.862C118.125 145.412 117.635 145.721 117.258 145.721C117.103 145.721 116.97 145.544 116.97 145.213C116.97 144.994 117.125 144.178 117.525 142.79L118.014 141.025C118.413 139.55 118.657 138.579 118.657 138.094C118.657 137.676 118.546 137.522 118.079 137.522C116.948 137.522 114.84 138.712 112.932 141.334C113.376 139.549 113.552 138.468 113.552 138.116C113.552 137.675 113.397 137.522 113.02 137.522C111.91 137.522 109.891 138.756 108.182 141.356C108.604 139.593 108.781 138.49 108.781 138.116C108.781 137.675 108.67 137.499 108.315 137.499C107.871 137.499 106.829 138.028 105.297 139.174L105.43 139.549C106.163 139.064 106.651 138.821 106.916 138.821C107.138 138.821 107.205 138.974 107.205 139.327C107.207 140.231 106.697 142.678 105.588 146.689V146.689ZM96.6237 143.825C96.6237 145.918 97.555 146.999 99.2644 146.999C101.971 146.999 104.234 144.442 104.234 140.518C104.234 138.359 103.413 137.39 101.549 137.39C98.8419 137.39 96.6237 139.99 96.6237 143.825ZM95.0921 145.346L95.2473 144.553C93.8268 145.5 92.3178 145.984 90.8314 145.984C87.7693 145.984 86.0599 144.068 86.0599 140.584C86.0599 136.243 88.2565 133.622 91.6743 133.622C93.2943 133.622 94.6254 134.281 94.9359 134.745C95.0243 134.856 95.0695 135.163 95.0695 135.672C95.0695 135.891 95.0695 136.178 95.0479 136.463L95.5804 136.509C95.6698 135.538 95.8466 134.569 96.0912 133.622C94.8534 133.081 93.5157 132.804 92.1636 132.806C90.2774 132.806 88.6574 133.356 87.3478 134.437C85.3732 136.069 84.3073 138.447 84.3073 141.137C84.3073 144.793 86.3929 147.065 89.8323 147.065C91.8079 147.064 93.6273 146.469 95.0921 145.346ZM65.0021 146.733C65.7769 146.664 66.5544 146.627 67.3323 146.624C67.9316 146.624 68.5535 146.645 69.1959 146.689L69.2175 146.16C68.241 146.139 67.7527 146.049 67.7527 145.763C67.7527 145.433 67.9964 145.014 68.3736 144.395L70.1714 141.267H74.8762L75.276 144.508C75.3418 144.905 75.3644 145.167 75.3644 145.345C75.3644 146.16 75.1198 146.16 73.766 146.226V146.732C74.682 146.671 75.5998 146.642 76.5178 146.644C77.1612 146.644 77.7821 146.644 78.404 146.688L78.4482 146.159C77.1838 146.138 76.9834 146.026 76.8498 145.013L75.2298 133.045H74.3643L66.6868 145.254C66.2654 145.915 65.7771 146.181 65 146.225V146.733H65.0021V146.733ZM66.6005 95.8236H234V98.7107H66.6005V95.8236ZM66.6005 124.034H234V126.921H66.6005V124.034ZM66.6005 88.6834H234V16H66.6005V88.6834Z" fill="black"/>
<path fill-rule="evenodd" clip-rule="evenodd" d="M174.049 75.4364V52.1623H165.228V46.5959H220V52.1623H211.58V81.428C211.58 81.428 204.186 79.095 193.182 79.095C177.366 79.095 166.675 83 147.631 83C125.111 83 78 76.1548 78 52.7902C78 29.4267 119.097 20 145.96 20C172.803 20 201.559 29.7189 201.559 29.7189L202.27 37.8657C202.27 37.8657 177.701 25.5664 153.733 25.5664C129.766 25.5664 112.191 35.4412 112.191 52.5885C112.191 69.7577 133.464 77.9046 150.482 77.9046C167.499 77.9056 174.049 75.4364 174.049 75.4364V75.4364Z" fill="white"/>
<path fill-rule="evenodd" clip-rule="evenodd" d="M140.491 62.4743C140.491 62.4743 140.645 60.9415 139.3 61.8616C137.933 62.7594 134.623 65.3441 134.227 67.665C133.829 69.9647 133.962 70.4678 134.756 71.2124C134.756 71.2124 133.83 71.8251 132.75 71.7825C131.691 71.7166 131.558 70.4242 131.05 69.9211C131.05 69.9211 132.992 66.0227 133.389 64.9068C133.786 63.7677 133.61 62.7604 134.69 61.8626C135.771 60.9436 136.852 59.2566 136.167 57.6802C135.484 56.1028 134.867 54.9647 134.867 53.6723C134.867 53.6723 133.566 54.7019 132.815 57.2197C132.087 59.7598 131.514 63.5486 129.242 63.5486C126.948 63.5486 126 61.5786 126 61.5786C126 61.5786 127.081 61.5126 127.808 61.118C127.808 61.118 127.015 60.4394 127.875 59.7171C128.735 58.9726 129.177 57.6802 129.419 56.5421C129.639 55.4252 130.763 49.9505 133.566 51.0896C133.566 51.0896 135.55 51.8778 136.235 50.8492C136.896 49.8419 139.234 49.6228 140.205 49.6228C141.176 49.6228 142.918 48.44 141.904 47.9805C141.462 47.7827 140.646 47.6954 139.985 47.455L128.979 49.6451C128.979 49.6451 128.517 48.9878 128.891 48.3315L138.993 46.4051C139.016 46.1201 139.17 45.7478 139.523 45.2882C141.287 42.9663 142.235 41.2803 143.272 40.9304C144.287 40.6017 143.78 39.7476 143.493 39.5731C143.207 39.4199 142.412 38.4552 143.272 37.2734C144.11 36.0906 145.147 34.5579 146.559 35.5205C147.993 36.4842 149.404 37.382 149.404 37.382C149.404 37.382 149.978 37.7766 149.294 38.4552C148.611 39.1338 147.177 39.8571 147.243 40.4921C147.309 41.1048 147.926 41.1048 148.103 42.0695C148.257 42.9237 148.346 43.6236 149.007 44.5001L152.072 43.9087C152.116 43.7555 152.182 43.6236 152.272 43.4704C153.132 42.1132 154.72 39.4625 155.58 38.7403C155.58 38.7403 155.58 37.6011 156.021 37.4479C156.484 37.2734 157.057 37.7766 157.057 38.4552C157.057 38.4552 157.786 39.5285 158.402 39.8571C159.043 40.2071 159.44 40.2517 160.056 41.2154C160.299 41.609 160.541 41.9377 160.806 42.2227L176.289 39.2657C173.953 37.7553 163.585 31.6009 150.373 32.3678L149.006 33.9888C149.006 33.9888 139.787 33.1123 132.552 34.777L132.794 33.9888L132.045 33.3538C132.045 33.3538 136.544 31.3168 149.38 31.4923L151.388 29.0831C157.805 28.513 172.826 30.8127 183.325 37.9298L186.302 37.3597C186.302 37.3597 186.612 36.747 187.803 36.4406C188.973 36.1119 190.78 36.6151 191 36.7246C191 36.7246 190.074 37.9724 188.663 38.2797C187.25 38.5648 186.59 38.1925 186.59 38.1925L161.866 43.0981C162.085 43.2513 162.351 43.4258 162.659 43.58C164.202 44.4341 163.805 46.5806 162.901 46.6232C161.996 46.6891 161.136 46.5136 160.518 46.119C159.879 45.7255 158.579 45.4404 158.181 46.3382C157.784 47.2582 157.608 47.5433 158.291 49.3388C158.975 51.1343 160.12 53.3893 159.658 55.0316C159.195 56.6739 158.753 57.5057 159.769 57.6153C160.783 57.7462 163.297 57.6812 163.584 58.2503C163.848 58.7981 164.267 60.6149 164.267 61.2935C164.267 61.9722 164.091 63.155 163.187 63.8336C162.261 64.5122 160.959 65.3451 160.959 65.3451C160.959 65.3451 159.833 63.7027 160.959 62.0817C160.959 62.0817 162.436 61.9073 162.436 61.118C162.436 60.3288 161.929 59.7608 161.069 60.0012C160.231 60.2203 157.892 60.2203 157.451 61.4031C157.451 61.4031 156.878 64.5559 156.415 65.9578C155.973 67.381 155.686 69.8115 155.973 70.7103C156.237 71.608 156.7 72.2866 156.7 72.2866C156.7 72.2866 155.883 73.1854 155.046 72.9653C154.208 72.7472 153.635 72.1771 153.81 70.5997C153.966 69.0233 154.495 68.4978 154.363 67.4905C154.254 66.4832 154.428 63.9868 154.648 63.089C154.891 62.1913 154.826 60.833 153.7 60.833C152.553 60.833 152.267 61.2276 152.067 61.7967C151.848 62.3658 151.207 62.3658 150.591 61.8616C149.973 61.3361 149.223 60.6139 145.826 60.5043C145.826 60.5043 143.377 62.803 143.046 63.4826C142.693 64.1613 142.076 65.0154 143.444 65.9131C144.79 66.8109 145.826 67.315 145.65 68.7383C145.474 70.1402 145.363 70.7529 145.363 70.7529C145.363 70.7529 143.444 70.3146 143.046 69.4605C143.046 69.4605 143.707 68.1692 142.915 67.7746C142.121 67.38 140.312 65.8482 139.694 65.4536C139.058 65.058 138.616 64.4443 140.491 62.4743V62.4743Z" fill="white"/>
<path fill-rule="evenodd" clip-rule="evenodd" d="M150 45.4963C150.174 46.4635 150.087 47.4041 150.087 47.4041C150.087 47.4041 150.315 48.6328 150.707 47.5615C150.935 46.9078 150.946 45.9938 151 45L150 45.4963Z" fill="black"/>
<path fill-rule="evenodd" clip-rule="evenodd" d="M142.124 110.176H139.357V105.302C139.357 105.302 139.246 104 141.414 104C143.606 104 146.106 104.134 146.106 107.054C146.106 109.973 143.606 110.176 142.124 110.176V110.176ZM201.053 112.915L198.154 106.717L195.034 112.915H201.053ZM121.012 112.915L118.09 106.717L114.992 112.915H121.012V112.915ZM164.342 118.19C164.342 118.19 162.504 118.282 162.504 116.507V105.774C162.504 105.774 162.548 104.271 164.672 104.271C166.796 104.271 171.001 104.427 171.001 111.03C171.001 117.63 167.438 118.19 164.342 118.19ZM217.208 138.49C218.357 138.49 219 139.321 219 141.005C219 144.799 217.826 147 216.034 147C214.927 147 214.308 146.079 214.308 144.329C214.308 142.622 214.707 140.961 215.369 139.703C215.79 138.916 216.456 138.49 217.208 138.49ZM167.438 138.49C168.612 138.49 169.23 139.321 169.23 141.005C169.23 144.799 168.057 147 166.265 147C165.16 147 164.538 146.079 164.538 144.329C164.538 142.622 164.937 140.961 165.601 139.703C166.045 138.916 166.708 138.49 167.438 138.49V138.49ZM135.794 139.187C135.519 140.918 134.885 142.571 133.935 144.036C132.917 145.63 131.855 146.372 131.412 146.372C131.191 146.372 131.08 146.124 131.08 145.675C131.08 145.204 131.191 144.17 131.567 142.644C131.833 141.542 132.121 140.645 132.43 139.971C132.873 139.073 133.183 138.85 134.223 138.85C134.764 138.85 135.299 138.965 135.794 139.187V139.187ZM122.738 146.191C123.181 141.476 125.349 138.983 127.075 138.983C127.629 138.983 127.761 139.298 127.761 140.061C127.761 141.701 127.318 143.608 126.566 145.068C126.035 146.078 125.282 146.594 124.442 146.594C123.822 146.595 123.29 146.484 122.738 146.191V146.191ZM101.272 138.49C102.446 138.49 103.065 139.321 103.065 141.005C103.065 144.799 101.892 147 100.1 147C98.9924 147 98.3733 146.079 98.3733 144.329C98.3733 142.622 98.7936 140.961 99.4578 139.703C99.8781 138.916 100.542 138.49 101.272 138.49V138.49ZM71 141.094L74.4074 135.369L75.1148 141.094H71V141.094Z" fill="white"/>
</g>
<defs>
<clipPath id="clip0_216_8">
<rect width="300" height="168" fill="white"/>
</clipPath>
</defs>
</svg>
