<svg width="288" height="288" viewBox="0 0 288 288" fill="none" xmlns="http://www.w3.org/2000/svg">
<g clip-path="url(#clip0_211_2)">
<path d="M35.4001 0.383802C21.8401 2.23179 9.98408 10.8478 4.08007 23.1598C1.94407 27.5758 0.792074 31.6318 0.240074 36.5998C0.0480743 38.3278 7.43791e-05 68.4958 0.0480743 145.56C0.144074 245.232 0.168074 252.24 0.552074 254.16C4.10407 271.68 16.9201 284.4 34.0801 287.424C36.5041 287.856 40.5361 287.88 144 287.88C247.248 287.88 251.496 287.856 253.896 287.448C271.152 284.4 284.4 271.176 287.424 253.92C287.856 251.496 287.88 247.464 287.88 144C287.88 40.7518 287.856 36.5038 287.448 34.1038C285 20.2558 275.976 8.8318 263.16 3.31181C260.352 2.1118 257.472 1.2238 254.16 0.551801C252.24 0.167798 245.28 0.143811 144.96 0.0958076C55.4161 0.0478035 37.4161 0.0958076 35.4001 0.383802ZM93.3601 36.4798C113.376 40.0318 128.736 56.3278 131.616 77.0158C132.12 80.5438 132.12 87.4558 131.616 90.9838C128.64 112.32 112.104 129.192 91.6321 131.76C88.1041 132.216 80.7121 131.952 77.4001 131.304C58.0321 127.392 43.1521 111.12 40.2961 90.7198C40.1281 89.4718 39.9841 86.4478 39.9841 83.9998C39.9841 79.0798 40.2721 76.3678 41.2801 72.2398C44.2561 60.1438 51.1921 50.1358 61.2721 43.4398C69.6001 37.8958 78.6001 35.4718 88.9201 36.0238C90.5041 36.1198 92.4961 36.3118 93.3601 36.4798ZM210.6 36.7198C226.32 39.7918 239.712 51.5998 245.28 67.3198C247.224 72.8158 248.016 77.7118 248.016 83.9998C248.016 88.9198 247.728 91.6318 246.72 95.7598C244.512 104.736 240.288 112.296 233.88 118.68C227.328 125.232 219.552 129.456 210.552 131.304C207.48 131.952 199.776 132.192 196.392 131.76C175.872 129.192 159.36 112.344 156.36 90.9358C155.856 87.3358 155.856 80.6638 156.36 77.0638C159.504 54.5758 177.624 37.1758 199.08 36.0238C202.92 35.8318 207.36 36.0958 210.6 36.7198ZM93.3601 156.48C113.376 160.032 128.736 176.328 131.616 197.016C132.12 200.544 132.12 207.456 131.616 210.984C128.64 232.32 112.104 249.192 91.6321 251.76C88.1041 252.216 80.7121 251.952 77.4001 251.304C58.0321 247.392 43.1521 231.12 40.2961 210.72C40.1281 209.472 39.9841 206.448 39.9841 204C39.9841 199.08 40.2721 196.368 41.2801 192.24C44.2561 180.144 51.1921 170.136 61.2721 163.44C69.6001 157.896 78.6001 155.472 88.9201 156.024C90.5041 156.12 92.4961 156.312 93.3601 156.48ZM210.6 156.72C226.32 159.792 239.712 171.6 245.28 187.32C247.224 192.816 248.016 197.712 248.016 204C248.016 208.92 247.728 211.632 246.72 215.76C244.512 224.736 240.288 232.296 233.88 238.68C227.328 245.232 219.552 249.456 210.552 251.304C207.48 251.952 199.776 252.192 196.392 251.76C175.872 249.192 159.36 232.344 156.36 210.936C155.856 207.336 155.856 200.664 156.36 197.064C159.504 174.576 177.624 157.176 199.08 156.024C202.92 155.832 207.36 156.096 210.6 156.72Z" fill="#0D0D0D"/>
</g>
<defs>
<clipPath id="clip0_211_2">
<rect width="288" height="288" fill="white"/>
</clipPath>
</defs>
</svg>
