<svg width="300" height="168" viewBox="0 0 300 168" fill="none" xmlns="http://www.w3.org/2000/svg">
<rect width="300" height="168" fill="white"/>
<path d="M208.509 49.5248L150.969 16.1807C150.555 15.9413 150.046 15.939 149.633 16.1784L91.7772 49.42C91.3611 49.6564 91.1056 50.0985 91.1056 50.5797L91 100.632V117.431C91 117.909 91.2555 118.349 91.6694 118.591L149.305 151.822C149.718 152.059 150.23 152.059 150.641 151.822L208.466 118.538C208.88 118.298 209.137 117.856 209.137 117.378L209.176 50.6845C209.176 50.2064 208.922 49.7642 208.509 49.5248V49.5248Z" fill="white"/>
<path d="M207.8 83.6605H92.3379V100.658H207.8V83.6605Z" fill="#5AC4BE"/>
<path fill-rule="evenodd" clip-rule="evenodd" d="M199.146 73.4096C199.146 74.5862 198.097 75.5279 196.923 75.5279C195.747 75.5279 194.853 74.5862 194.853 73.4096L194.855 55.5713C194.855 54.3971 195.749 53.4576 196.923 53.4576C198.097 53.4576 199.149 54.3971 199.149 55.5713L199.146 73.4096ZM186.012 38.1071V80.9403H207.836V50.6845L186.012 38.1071V38.1071ZM145.556 73.0799C145.556 74.2565 144.532 75.2074 143.357 75.2074C142.182 75.2074 141.221 74.18 141.221 73.0057L141.224 51.7486C141.224 50.5721 142.182 49.6258 143.357 49.6258C144.532 49.6258 145.558 50.5652 145.558 51.7387L145.556 73.0799ZM141.241 32.528C141.241 31.3537 142.185 30.3998 143.359 30.3998C144.473 30.3998 145.455 31.2176 145.548 32.3031V40.6561L132.343 48.3849V80.9403H154.564L154.561 19.7999L150.296 17.3405L132.338 27.6817V41.9276L141.243 36.8763L141.241 32.528V32.528ZM181.501 63.1066H172.484L172.486 72.7594C172.486 73.9359 171.541 74.8876 170.366 74.8876C169.194 74.8876 168.247 73.9451 168.247 72.7716V40.0082C168.247 38.8339 169.189 38.1102 170.363 38.1102C171.539 38.1102 172.484 39.0519 172.484 40.2254V51.2414H181.501V35.5666L159.187 22.5516L159.182 80.9403H181.501V63.1066V63.1066ZM101.418 66.53V55.3105C101.418 54.1339 102.359 53.183 103.533 53.183C104.707 53.183 105.67 54.1247 105.67 55.2982V80.9403H114.623L114.625 47.7301C114.625 46.5558 115.565 45.6042 116.739 45.6042C117.913 45.6042 118.877 46.5443 118.877 47.7201L118.879 80.9403H127.934V30.0203L92.4435 50.582V80.9403H101.418V66.53V66.53ZM92.3379 117.431L149.976 150.663L207.798 117.38V100.608L92.3379 100.637V117.431Z" fill="#007DC5"/>
</svg>
