<svg width="300" height="168" viewBox="0 0 300 168" fill="none" xmlns="http://www.w3.org/2000/svg">
<g clip-path="url(#clip0_216_2)">
<path fill-rule="evenodd" clip-rule="evenodd" d="M0 0H300V168H0V0Z" fill="white"/>
<path fill-rule="evenodd" clip-rule="evenodd" d="M55.8821 85.94V112.51H38V49H69.7429C77.4196 49 80.1612 56.4861 80.1612 60.7195V73.9741C80.1612 77.472 77.4196 79.6811 75.4096 80.0482C80.3447 80.9686 80.5269 84.2816 80.5269 87.7794V112.263H62.4308V90.1721C62.4308 86.3058 60.603 85.7552 57.6779 85.7552L55.8821 85.94V85.94ZM55.8821 59.921V75.078C55.8821 75.078 56.7653 75.2616 58.5931 75.078C60.4208 74.8932 62.4308 71.7637 62.2485 67.3468C62.065 62.9286 61.1511 59.921 59.3247 59.921H55.8821V59.921ZM146.543 49V75.2616H139.933V49H122.05V112.51H139.933V85.94H146.543V112.51H164.425V49H146.543V49ZM178.5 49H213.229V112.51H195.346V85.94H188.736V112.51H170.852V59.9839C170.852 56.6696 171.776 49 178.5 49V49ZM188.737 65.1377V75.2616H195.347V60.3511C195.346 60.3511 188.737 58.3268 188.737 65.1377V65.1377ZM116.354 101.771H104.624V85.94H116.354V75.2616H104.624V59.6772H116.354V49H86.7417V112.51H104.624V112.447H116.354V101.771V101.771ZM219.657 98.273V49H237.537V97.3527C237.537 97.3527 237.172 102.506 240.828 102.506C244.482 102.506 244.117 97.3527 244.117 97.3527V49H262V98.273C262 112.08 255.816 113 240.828 113C225.841 113 219.657 111.711 219.657 98.273V98.273ZM247.924 56.7505C247.924 59.6784 250.249 61.8709 253.022 61.8709C253.69 61.8748 254.352 61.7449 254.97 61.4888C255.588 61.2327 256.149 60.8554 256.62 60.379C257.092 59.9025 257.465 59.3364 257.717 58.7134C257.97 58.0905 258.097 57.4233 258.091 56.7505C258.091 53.8778 255.781 51.6866 253.022 51.6866C250.249 51.6866 247.924 53.8778 247.924 56.7505ZM248.843 56.7505C248.843 54.3142 250.655 52.435 253.022 52.435C255.36 52.435 257.172 54.3142 257.172 56.7505C257.172 59.2433 255.36 61.1225 253.022 61.1225C250.655 61.1238 248.843 59.2446 248.843 56.7505ZM251.048 59.7477H251.967V57.1856H252.94L254.551 59.7477H255.537L253.847 57.1189C254.725 57.0239 255.4 56.5746 255.4 55.499C255.4 54.354 254.738 53.7956 253.332 53.7956H251.049V59.7477H251.048V59.7477ZM251.967 54.5452H253.184C253.806 54.5452 254.481 54.6698 254.481 55.4579C254.481 56.3975 253.74 56.4386 252.928 56.4386H251.967V54.5452V54.5452Z" fill="#636466"/>
</g>
<defs>
<clipPath id="clip0_216_2">
<rect width="300" height="168" fill="white"/>
</clipPath>
</defs>
</svg>
