<svg width="300" height="168" viewBox="0 0 300 168" fill="none" xmlns="http://www.w3.org/2000/svg">
<g clip-path="url(#clip0_215_2)">
<path fill-rule="evenodd" clip-rule="evenodd" d="M0 0H300V168H0V0Z" fill="white"/>
<path fill-rule="evenodd" clip-rule="evenodd" d="M65.7032 124.41C65.2494 134.453 77.7696 131.238 79.9547 124.972L96.9936 76.0892C89.1165 78.6579 82.6259 84.6043 78.5754 91.4575C75.8312 96.1022 74.6052 103.841 81.3316 107.39C80.715 110.302 78.3108 113.048 74.4208 113.131C66.7245 113.295 63.3996 104.724 65.8194 93.098C69.3035 76.3528 91.6859 63.6416 106.871 64.9086C120.877 66.0767 129.706 77.4565 128.469 90.0854C127.405 100.958 119.468 113.453 111.104 115.358C117.73 122.291 118.259 134.333 125.989 134.312C127.027 138.374 123.978 143.778 119.296 143.894C106.415 144.214 103.956 117.213 95.8753 115.516C94.2521 120.136 92.6202 124.753 90.9795 129.367C87.9958 137.76 79.9404 142.782 71.6838 143.102C62.3292 143.463 54.6437 136.605 55.3022 128.589C55.8123 122.405 65.9463 119.019 65.7032 124.41ZM109.716 75.9508C105.815 87.0895 101.936 98.2354 98.0316 109.372C103.969 110.283 113.526 100.955 116.341 92.8319C118.689 86.0599 115.596 78.7474 109.716 75.9508ZM178.372 141.539C171.404 141.26 166.772 136.014 170.302 125.457L172.608 118.565H163.388C161.344 133.928 151.19 141.639 140.62 141.683C130.84 141.723 123.801 129.757 126.642 119.714C129.802 108.55 141.505 99.4703 152.291 100.042C158.984 100.396 163.794 103.416 165.548 108.657H175.921L185.001 81.519H196.815L187.679 108.657H194.941L191.627 118.566H184.343L181.684 126.463C180.599 129.69 186.038 129.879 188.456 127.468C192.467 123.471 194.989 120.861 199.264 114.116C203.388 107.602 210.624 100.378 220.445 99.901C231.798 99.3438 232.556 104.706 234.639 107.138C238.376 111.496 244.688 106.821 246.671 106.36C245.699 108.169 245.282 112.734 243.612 115.092C241.568 117.976 236.234 119.314 233.702 118.997C232.823 123.737 227.589 141.008 211.655 141.54C204.204 141.789 200.295 136.795 197.965 132.494C191.879 139.121 184.845 141.8 178.372 141.539ZM146.527 111.099C141.87 111.002 136.578 116.737 135.575 123.448C135.038 127.051 137.691 132.865 141.339 132.638C148.372 132.203 152.887 127.244 153.731 118.566C148.593 118.708 146.287 116.699 146.527 111.099ZM216.845 110.381C212.189 110.283 206.896 116.019 205.894 122.73C205.357 126.333 208.011 132.147 211.658 131.918C218.69 131.482 223.206 126.525 224.05 117.848C218.91 117.99 216.604 115.979 216.845 110.381ZM38 152H262V103.3L161.586 16H136.782L38 102.958V152ZM51.5619 95.5796L138.395 18.1154L227.157 95.5796H51.5619ZM245.426 22.4224H250.954C251.783 22.4224 252.492 22.5775 253.076 22.8854C253.661 23.192 254.099 23.5976 254.396 24.0976C254.69 24.5975 254.835 25.1284 254.835 25.6927C254.835 26.5374 254.531 27.2628 253.923 27.8677C253.317 28.4762 252.473 28.7769 251.391 28.7769C251.209 28.7769 251.061 28.7697 250.954 28.753L254.344 34.0432H252.636L249.245 28.969H246.919V34.0432H245.427V22.4224H245.426ZM250.524 27.6947C251.358 27.6947 252.004 27.4979 252.462 27.103C252.921 26.7116 253.152 26.2415 253.152 25.6951C253.152 25.1606 252.936 24.6953 252.507 24.2968C252.077 23.8935 251.486 23.6955 250.741 23.6955H246.918V27.6947H250.524ZM238.86 28.5323V28.1541C238.86 26.2869 239.318 24.5736 240.231 23.0202C241.12 21.4883 242.401 20.2184 243.942 19.3395C245.488 18.4473 247.245 17.9831 249.031 17.9949C250.356 17.9949 251.65 18.255 252.922 18.7728C254.187 19.291 255.347 20.0345 256.345 20.9669C257.358 21.906 258.176 23.0346 258.752 24.2885C259.341 25.5597 259.644 26.9445 259.638 28.345C259.593 30.2134 259.223 31.8181 258.527 33.1579C257.832 34.5026 256.956 35.5763 255.899 36.3817C254.901 37.1557 253.776 37.7512 252.574 38.1415C251.411 38.5102 250.312 38.6915 249.274 38.6915C249.075 38.6915 248.933 38.6856 248.844 38.6677C247.644 38.6235 246.461 38.3229 245.292 37.7693C244.104 37.2009 243.024 36.4333 242.097 35.5C241.151 34.5621 240.374 33.4688 239.801 32.2679C239.238 31.0986 238.918 29.8279 238.86 28.5323ZM240.352 28.5263C240.352 29.6037 240.587 30.6644 241.063 31.7083C241.542 32.7586 242.203 33.7169 243.016 34.5395C243.827 35.3713 244.778 36.0567 245.824 36.5654C246.824 37.0639 247.915 37.3538 249.031 37.4173H249.358C250.44 37.4173 251.504 37.1799 252.552 36.7074C253.616 36.2235 254.582 35.548 255.4 34.7149C256.247 33.8695 256.93 32.8752 257.414 31.7823C257.898 30.6989 258.147 29.5261 258.146 28.3402C258.146 26.7594 257.732 25.2859 256.904 23.921C256.098 22.5777 254.961 21.4609 253.602 20.6758C252.23 19.8752 250.775 19.4755 249.245 19.4755C248.391 19.4755 247.454 19.6509 246.429 19.9993C245.37 20.3685 244.382 20.917 243.51 21.6207C242.588 22.3509 241.829 23.297 241.24 24.4591C240.646 25.6211 240.352 26.9777 240.352 28.5263Z" fill="#CC2229"/>
</g>
<defs>
<clipPath id="clip0_215_2">
<rect width="300" height="168" fill="white"/>
</clipPath>
</defs>
</svg>
