<svg width="300" height="168" viewBox="0 0 300 168" fill="none" xmlns="http://www.w3.org/2000/svg">
<g clip-path="url(#clip0_216_16)">
<path fill-rule="evenodd" clip-rule="evenodd" d="M0 0H300V168H0V0Z" fill="white"/>
<path fill-rule="evenodd" clip-rule="evenodd" d="M150.5 23L206 78.4565L150.5 134L95 78.4572L150.5 23ZM117.287 64.7663H110.523V71.5248L103.586 78.4565L110.523 85.5622V92.1474H117.113L150.5 125.421L183.8 92.1474H190.477V85.3889L197.414 78.4572L190.477 71.6118V64.7663H183.627L150.5 31.5786L117.287 64.7663Z" fill="#33348E"/>
<path fill-rule="evenodd" clip-rule="evenodd" d="M180.152 64.2091H119.761L150 34L180.152 64.2091ZM190.407 81.5466V74.4541L194 77.9561L190.407 81.5466V81.5466ZM119.585 91.7037H180.327L150 122L119.585 91.7037V91.7037ZM109.593 74.3662V81.7217L106 77.9561L109.593 74.3662V74.3662Z" fill="#33348E"/>
<path fill-rule="evenodd" clip-rule="evenodd" d="M97.4383 83.9564L91.637 78.1337L150 19.5634L208.363 78.1344L202.561 83.9571L208.363 89.7791L150 148.437L91.637 89.7791L97.4383 83.9564V83.9564ZM206.199 84.0436L212 89.8663L150 152L88 89.8663L93.8014 84.0436L88 78.2216L150 16L212 78.2209L206.199 84.0436V84.0436Z" fill="#33348E"/>
<path fill-rule="evenodd" clip-rule="evenodd" d="M150.5 136.206L201.577 86L206 90.2684L150.5 145L95 90.2684L99.4228 86L150.5 136.206V136.206Z" fill="#33348E"/>
<path fill-rule="evenodd" clip-rule="evenodd" d="M185 90H177.982L177.592 87.0774H173.694L173.304 90H166.286L170.965 66H179.541L185 90ZM177.28 80.7892L175.565 75.21L173.928 80.7892H177.28V80.7892ZM148.768 90V66H155.136V73.1735L158.595 66H165.514L160.482 77.7785L165.828 90H159.224L155.136 82.4724V90H148.768V90ZM134.266 90V66H146.269V71.6674H141.212V75.3871H145.73V80.347H141.212V84.2437H146.539V90H134.266ZM120.251 90L115 66H121.606L124.146 76.6272L127.28 66H133.8L127.195 90H120.251Z" fill="#33348E"/>
</g>
<defs>
<clipPath id="clip0_216_16">
<rect width="300" height="168" fill="white"/>
</clipPath>
</defs>
</svg>
