<svg width="300" height="168" viewBox="0 0 300 168" fill="none" xmlns="http://www.w3.org/2000/svg">
<rect width="300" height="168" fill="white"/>
<path d="M51.6472 103.735V61.2399H87.2494V50.6167L38 50.6237V114.353H87.2494V103.735H51.6472" fill="#6EC72E"/>
<path d="M95.2885 61.2403H73.3281V103.735H95.2885V61.2403Z" fill="#19B4DE"/>
<path d="M259.076 114.349C258.435 114.349 257.586 114.205 256.938 113.984L257.017 112.66C257.103 112.698 257.96 113.097 258.836 113.097C259.702 113.097 259.903 112.66 259.903 112.397C259.903 111.736 259.062 111.626 258.398 111.342C257.599 111.004 257.053 110.568 257.053 109.61C257.053 108.88 257.497 107.71 259.404 107.71C259.778 107.71 260.537 107.697 261.471 107.981L261.324 109.205C261.083 109.117 260.532 108.896 259.854 108.896C258.783 108.896 258.72 109.404 258.72 109.565C258.72 110.126 259.341 110.237 259.862 110.407C260.595 110.653 261.593 111.093 261.593 112.36C261.593 113.386 260.81 114.349 259.076 114.349M253.324 114.256V110.635C253.324 110.043 253.329 109.092 252.36 109.092C251.721 109.092 251.048 109.61 251.048 110.697V114.256H249.358V110.635C249.358 109.862 249.28 109.092 248.431 109.092C247.818 109.092 247.103 109.543 247.103 110.697V114.256H245.403V107.81H247.014V108.907H247.051C247.425 108.089 248.211 107.71 249.033 107.71C250.189 107.71 250.639 108.358 250.801 108.92H250.833C251.289 108.057 252.119 107.71 252.949 107.71C253.525 107.71 255.014 107.845 255.014 109.959V114.256H253.324ZM240.475 108.88C239.727 108.88 239.171 109.543 239.151 110.382H241.806C241.83 109.304 241.096 108.88 240.475 108.88ZM239.151 111.54C239.203 112.36 239.803 113.138 241.076 113.138C241.82 113.138 242.477 112.958 243.093 112.69V113.957C242.427 114.205 241.628 114.349 240.856 114.349C238.936 114.349 237.391 113.305 237.391 111.035C237.391 108.958 238.841 107.71 240.565 107.71C243.49 107.71 243.548 110.583 243.548 111.155V111.54H239.151ZM234.672 114.349C232.809 114.349 232.804 112.785 232.804 112.36V109.051H231.523V107.81H232.804V106.528L234.488 105.992V107.81H235.983V109.051H234.488V111.978C234.488 112.539 234.488 113.109 235.318 113.109C235.546 113.109 235.782 113.059 235.983 113.002V114.189C235.881 114.212 235.269 114.349 234.672 114.349M227.775 114.349C227.128 114.349 226.284 114.205 225.632 113.984L225.708 112.66C225.797 112.698 226.659 113.097 227.513 113.097C228.395 113.097 228.591 112.66 228.591 112.397C228.591 111.736 227.762 111.626 227.088 111.342C226.292 111.004 225.739 110.568 225.739 109.61C225.739 108.88 226.19 107.71 228.097 107.71C228.472 107.71 229.237 107.697 230.16 107.981L230.009 109.205C229.776 109.117 229.231 108.896 228.547 108.896C227.476 108.896 227.413 109.404 227.413 109.565C227.413 110.126 228.039 110.237 228.553 110.407C229.291 110.653 230.281 111.093 230.281 112.36C230.281 113.386 229.504 114.349 227.775 114.349M221.991 115.039C221.603 116.071 221.174 117 219.354 117C219.008 117 218.696 116.946 218.371 116.828L218.491 115.57C218.696 115.644 218.906 115.702 219.152 115.702C219.728 115.702 220.108 115.552 220.33 114.986L220.469 114.615L217.936 107.81H219.799L221.009 111.373L221.362 112.6H221.434L221.826 111.318L222.996 107.81H224.72L221.991 115.039ZM214.266 114.349C213.615 114.349 212.774 114.205 212.126 113.984L212.202 112.66C212.292 112.698 213.141 113.097 214.015 113.097C214.896 113.097 215.085 112.66 215.085 112.397C215.085 111.736 214.248 111.626 213.583 111.342C212.784 111.004 212.234 110.568 212.234 109.61C212.234 108.88 212.69 107.71 214.583 107.71C214.963 107.71 215.731 107.697 216.656 107.981L216.503 109.205C216.276 109.117 215.726 108.896 215.04 108.896C213.97 108.896 213.9 109.404 213.9 109.565C213.9 110.126 214.526 110.237 215.048 110.407C215.788 110.653 216.776 111.093 216.776 112.36C216.776 113.386 215.999 114.349 214.266 114.349M207.174 109.017C207.059 109.006 206.804 108.979 206.629 108.979C206.018 108.979 205.062 109.352 205.062 111.155V114.256H203.365V107.81H204.911V109.205H204.949C205.101 108.421 205.683 107.71 206.678 107.71C206.843 107.71 207.059 107.748 207.241 107.782L207.174 109.017ZM198.176 108.923C197.434 108.923 196.625 109.543 196.625 111.035C196.625 112.521 197.434 113.138 198.176 113.138C198.93 113.138 199.734 112.521 199.734 111.035C199.734 109.543 198.93 108.923 198.176 108.923ZM198.176 114.349C196.269 114.349 194.862 113.181 194.862 111.035C194.862 108.88 196.269 107.71 198.176 107.71C200.096 107.71 201.502 108.88 201.502 111.035C201.502 113.181 200.096 114.349 198.176 114.349ZM190.048 108.923C189.307 108.923 188.489 109.543 188.489 111.035C188.489 112.521 189.307 113.138 190.048 113.138C190.797 113.138 191.601 112.521 191.601 111.035C191.601 109.543 190.797 108.923 190.048 108.923ZM190.048 114.349C188.141 114.349 186.73 113.181 186.73 111.035C186.73 108.88 188.141 107.71 190.048 107.71C191.965 107.71 193.369 108.88 193.369 111.035C193.369 113.181 191.965 114.349 190.048 114.349ZM181.776 109.051C181.093 109.051 180.343 109.666 180.343 111.035C180.343 112.397 181.093 113.008 181.776 113.008C182.462 113.008 183.206 112.397 183.206 111.035C183.206 109.666 182.462 109.051 181.776 109.051ZM183.416 114.256V113.138H183.397C183.107 113.668 182.518 114.349 181.286 114.349C179.647 114.349 178.58 113.069 178.58 111.035C178.58 108.682 180.065 107.71 181.365 107.71C182.295 107.71 182.89 108.158 183.219 108.682H183.248L183.206 107.625V104.923H184.899V114.256H183.416ZM171.763 114.256H169.761L168.577 110.251L168.333 109.181H168.294L168.066 110.237L166.95 114.256H164.949L162.824 107.81H164.627L165.698 111.38L166.013 112.698H166.041L166.343 111.342L167.401 107.81H169.402L170.491 111.38L170.821 112.715H170.845L171.154 111.373L172.173 107.81H173.876L171.763 114.256ZM158.317 108.923C157.576 108.923 156.764 109.543 156.764 111.035C156.764 112.521 157.576 113.138 158.317 113.138C159.059 113.138 159.876 112.521 159.876 111.035C159.876 109.543 159.059 108.923 158.317 108.923ZM158.317 114.349C156.397 114.349 155.004 113.181 155.004 111.035C155.004 108.88 156.397 107.71 158.317 107.71C160.237 107.71 161.638 108.88 161.638 111.035C161.638 113.181 160.237 114.349 158.317 114.349ZM150.042 109.051C149.359 109.051 148.617 109.666 148.617 111.035C148.617 112.397 149.359 113.008 150.042 113.008C150.726 113.008 151.475 112.397 151.475 111.035C151.475 109.666 150.726 109.051 150.042 109.051ZM151.689 114.256V113.138H151.664C151.373 113.668 150.797 114.349 149.561 114.349C147.92 114.349 146.85 113.069 146.85 111.035C146.85 108.682 148.332 107.71 149.638 107.71C150.569 107.71 151.158 108.158 151.488 108.682H151.517L151.475 107.625V104.923H153.172V114.256H151.689ZM143.293 114.256V110.366C143.293 109.744 142.999 109.092 142.2 109.092C141.157 109.092 140.681 110.087 140.681 110.784V114.256H138.994V107.81H140.621V108.819H140.654C141.28 107.876 142.2 107.71 142.695 107.71C144.031 107.71 144.987 108.446 144.987 109.744V114.256H143.293ZM135.037 107.81H136.73V114.254H135.037V107.81ZM135.009 105.115H136.75V106.85H135.009V105.115ZM131.343 114.256H129.341L128.156 110.251L127.908 109.181H127.869L127.647 110.237L126.529 114.256H124.525L122.397 107.81H124.203L125.273 111.38L125.596 112.698H125.62L125.916 111.342L126.974 107.81H128.98L130.07 111.38L130.391 112.715H130.418L130.735 111.373L131.748 107.81H133.46L131.343 114.256ZM234.716 89.1314C234.957 90.9411 237.1 92.0289 240.748 92.0289C244.308 92.0289 246.157 91.2176 246.157 89.5634C246.157 88.0839 244.535 87.1857 241.369 86.8073L231.402 85.5684C223.146 84.5736 218.973 81.1159 218.973 75.3201C218.973 67.445 225.333 64.2771 238.802 64.2771C252.798 64.2771 259.867 67.4942 260.438 75.1883H244.929C244.594 73.0424 242.37 71.9195 238.234 71.9195C235.06 71.9195 233.393 72.8686 233.393 74.1901C233.393 75.7126 235.06 76.1349 238.524 76.6002L250.663 78.3615C258.259 79.4512 262.002 82.728 262.002 88.4167C262.002 97.0547 254.413 100.656 238.618 100.656C225.524 100.656 218.696 96.3918 218.594 89.1314H234.716ZM186.68 90.4608H193.312C199.897 90.4608 202.99 88.2815 202.99 82.0721C202.99 75.9452 199.957 73.6623 193.312 73.6623H186.68V90.4608ZM195.394 65.1297C209.827 65.1218 217.316 71.2486 217.316 82.3952C217.316 93.5409 209.863 99.6186 195.394 99.6186H173.344V65.1297H195.394ZM103.035 50.5334H117.373L128.561 89.2254L134.908 65.1762H145.97L152.369 89.2254L158.013 65.1762H172.393L160.577 99.6186H146.116L140.274 77.3123L134.344 99.6186H120.019L103.035 50.5334Z" fill="#191217"/>
</svg>
